<svg xmlns="http://www.w3.org/2000/svg" viewBox="0 0 651.8 144"><defs><style>.cls-1{fill:#f5333f;}.cls-2{fill:#fff;}.cls-3{fill:none;stroke:#231f20;stroke-linecap:round;stroke-width:2px;}.cls-4{fill:#b1b3b5;}</style></defs><g id="Layer_2" data-name="Layer 2"><g id="Layer_1-2" data-name="Layer 1"><rect class="cls-1" x="25.7" y="12.2" width="113" height="129"/><path class="cls-2" d="M63.2,20.7c-4.4-4.2,31.9,5.1,57.2,43.5,23.2,35.1,29.3,72.8,30.1,78.3a4.17,4.17,0,0,1,.1,1.5l-.7-.6a73.44,73.44,0,0,0-35.1-11.8c-21.2-1.6-30.3,7-31.6,7s9.7-16.7,5.7-54.4C85.3,49.5,71.3,28.6,63.2,20.7Z"/><path class="cls-3" d="M63.2,20.7c32.7,37.6,29.8,97.4,20,117.5"/><path class="cls-2" d="M16.9,1.1c4.6,1.9,45,22,47,23.6s1.7.3,2.3,2.6c1.3,4.8,20.5,98.1,15.5,111.5-1.4,3.9.4,4-3.3,3.4s-19.5-4.9-35.8-7.8-37.4-5.9-40.4-5.9c-2.7,0-1.5-.7.1-3,7.8-11.7,23.8-39.3,22.8-71.9S16.9,1.1,16.9,1.1Z"/><path class="cls-4" d="M65.8,25.9c9.8,41.9,9.8,41,11.7,54.4,1.5,10.6,6.3,47.4,5.6,52.2s-1.8,11-2.3,9.3C64.9,89.8,63.2,33.6,65.8,25.9Z"/><path class="cls-3" d="M16.4,1C37.7,71.7,13.7,107,1,127.1"/><path d="M637.4,80.9v-40c-.1,0-.1,0-.2-.1-.5.8-1,1.7-1.5,2.5C629.8,53.1,624,63,618.1,72.8a1.68,1.68,0,0,1-1.8,1,40.05,40.05,0,0,0-4.9,0,1.54,1.54,0,0,1-1.6-.9c-6.1-10.1-12.2-20.1-18.4-30.2a2,2,0,0,0-.9-.9V80.9H575.8V13.1h11.6a2,2,0,0,1,1.9,1.1l24,39.9c.2.3.4.6.7,1.1a3.74,3.74,0,0,0,.6-1C622.4,41,630.3,27.9,638,14.7a2.62,2.62,0,0,1,2.7-1.5c3.3.1,6.6,0,9.8,0h1.3V81C647.3,80.9,642.4,80.9,637.4,80.9Z"/><path d="M526,12c10.6.1,19.5,2.8,26.8,9.5,8.3,7.6,11.7,17.2,11,28.3a32.59,32.59,0,0,1-11.6,23.5c-6.8,5.8-14.8,8.5-23.6,8.9s-17-1.5-24.2-6.5c-11-7.8-15.6-18.6-14.6-31.9a31.78,31.78,0,0,1,9.9-21.2,35.76,35.76,0,0,1,21.5-10.1A34,34,0,0,1,526,12ZM505.5,47.3c.1,1.1.2,2.5.4,3.8,1.4,8,5.7,13.9,13.6,16.4,8.1,2.6,15.7,1.4,22.1-4.5,4.7-4.4,6.5-10.1,6.4-16.5-.4-17.8-17.4-25.1-30.5-19.1C509.1,31.3,505.8,38.3,505.5,47.3Z"/><path d="M289.6,80.9V53.3H258.9V80.9H243.2V13.2h15.6V39.8h30.8V13.2h15.7V80.9Z"/><path d="M369.1,62.3V80.9H353.4V13.1h29.7a35.29,35.29,0,0,1,16.6,3.6c8,4.1,12.1,10.8,12.5,19.8.3,6.1-1.1,11.7-5.1,16.4a24.23,24.23,0,0,1-14.4,8.2,54.57,54.57,0,0,1-9.9,1.1c-4.1.2-8.2,0-12.2,0A7.08,7.08,0,0,1,369.1,62.3Zm0-12.8c6-.3,12,.6,17.9-.6,5.6-1.1,8.6-4.4,9.1-9.9.5-5.7-1.8-10.4-7.9-12.2a18.9,18.9,0,0,0-5.3-.8c-4.3-.1-8.6,0-12.8,0a2.77,2.77,0,0,0-.9.1C369.1,33.9,369.1,41.6,369.1,49.5Z"/><path d="M224.7,29.7c-3.1-1.2-6-2.6-9.1-3.6a30,30,0,0,0-16-.9,8.94,8.94,0,0,0-4.8,2.5,5.74,5.74,0,0,0,1,9.3c2.7,1.7,5.7,2.3,8.8,3.1,4.6,1.2,9.2,2.3,13.8,3.7a33.07,33.07,0,0,1,6.6,3.1c6,3.8,8.1,9.5,7.3,16.3-1,8.4-6.2,13.5-13.7,16.4-5.8,2.3-11.8,2.7-17.9,2.4a50.59,50.59,0,0,1-20.6-5.2,45,45,0,0,1-4.1-2.5c1.8-4.1,3.6-7.9,5.4-11.9a5.58,5.58,0,0,1,.8.5A38.2,38.2,0,0,0,208.7,69a14.65,14.65,0,0,0,5-1.6c4.4-2.4,4.5-7.7.1-10a45.09,45.09,0,0,0-8.7-3.1c-5.5-1.5-11.2-2.4-16.5-4.9s-9.4-6.1-10.6-12.1c-1.9-9.3,2.4-17.8,11.1-22,5.8-2.8,12.1-3.5,18.4-3.4a45.61,45.61,0,0,1,18.5,4c1,.4,1.9,1,2.9,1.5a3.47,3.47,0,0,1,.9.6C227.9,22,226.3,26,224.7,29.7Z"/><path d="M485.1,23.8c-3.6,3.4-7,6.4-10.3,9.5-9.4-11.3-26.2-9.4-33.5-1.1s-7,22.7.8,30.5c7.5,7.4,23.3,9.2,32.7-2,1.7,1.5,3.3,3.1,5,4.6s3.3,3.1,5.1,4.7a29,29,0,0,1-7.4,6.6c-7.2,4.6-15.3,6-23.6,5.4-9.6-.6-18-4-24.6-11.1a33.55,33.55,0,0,1-9.2-24.2c.2-13,5.6-23.4,17.1-29.7,13.7-7.4,27.6-7.2,41.1,1C480.7,19.6,482.7,21.8,485.1,23.8Z"/><path d="M337.1,81H321.5V13.3h15.6Z"/><path d="M199.5,124.5c-1.5,4.3-2.9,8.4-4.2,12.4-.8,2.2-.3,1.8-2.5,1.8a6.53,6.53,0,0,1-1.4,0c-.3-.1-.8-.3-.8-.6-2.1-6.3-4.2-12.5-6.3-19,1.2,0,2.3-.1,3.4,0,.3,0,.6.5.7.9,1.4,4.2,2.8,8.5,4.2,12.7.1.3.2.6.4,1.1q2.25-6.75,4.5-13.2c.2-.5.5-1.4.8-1.4a10.06,10.06,0,0,1,3,0c.2,0,.4.6.5,1,1.4,4.1,2.7,8.2,4.1,12.3a7.26,7.26,0,0,0,.6,1.4c1.4-4.3,2.8-8.3,4.1-12.3.9-2.6.9-2.6,3.6-2.5.2,0,.4.1.7.1-.4,1.2-.7,2.2-1.1,3.3-1.7,5.1-3.4,10.1-5,15.2-.3.8-.6,1-1.4,1-2.9,0-2.9,0-3.8-2.7-1.2-3.7-2.5-7.4-3.7-11.1C199.7,124.9,199.7,124.8,199.5,124.5Z"/><path d="M317.1,119.3a95.27,95.27,0,0,1,10.7.1,6.3,6.3,0,0,1,5.8,5.6c.5,3.1-.8,5.5-4,7.3,1.4,2.1,2.9,4.1,4.4,6.4h-3.7c-.3,0-.6-.4-.8-.7-1-1.4-2-2.9-3-4.3a1.52,1.52,0,0,0-1-.6c-1.5-.1-2.9,0-4.6,0v5.6h-3.7C317.1,132.2,317.1,125.7,317.1,119.3Zm3.8,3.1V130h4.7a4.25,4.25,0,0,0,1.1-.2,3.79,3.79,0,0,0-.3-7.5C324.6,122.2,322.8,122.4,320.9,122.4Z"/><path d="M397.2,119.2v3H386.6v5H396v3h-9.4v5.3h11v3H382.9V119.1C387.6,119.2,392.4,119.2,397.2,119.2Z"/><path d="M512.6,130.3v5.3h10.9v3.1H508.8V119.2h14.3v3H512.6v5h9.3v3C518.9,130.3,515.8,130.3,512.6,130.3Z"/><path d="M649,120.5c-.4,1-.8,1.9-1.1,2.7a36,36,0,0,0-4.4-1.2,12.46,12.46,0,0,0-3.8.3,2,2,0,0,0-1.6,2.1,1.93,1.93,0,0,0,1.5,1.9l3.9,1.2a21.29,21.29,0,0,1,3.3,1.1,5.09,5.09,0,0,1,.8,8.8,10.81,10.81,0,0,1-6.3,1.6,12.27,12.27,0,0,1-7.3-2.4c.4-.9.8-1.9,1.1-2.6a38.59,38.59,0,0,0,5.5,1.7,10.92,10.92,0,0,0,4-.4,1.85,1.85,0,0,0,1.5-1.9,1.87,1.87,0,0,0-1.3-1.9c-1.2-.4-2.3-.8-3.5-1.1s-2.3-.6-3.4-1.1a4.62,4.62,0,0,1-3.3-4.6,5.12,5.12,0,0,1,3.3-5.1C641.6,118.1,645.3,118.6,649,120.5Z"/><path d="M586.2,120.5c-.4,1.1-.8,1.9-1.1,2.7a36,36,0,0,0-4.4-1.2,10.76,10.76,0,0,0-3.6.3,2.16,2.16,0,0,0-1.7,2.1c-.1,1.1.6,1.7,1.6,2,1.3.4,2.6.7,3.9,1.1a23,23,0,0,1,3.4,1.2,5.07,5.07,0,0,1,.7,8.7,9.28,9.28,0,0,1-5.5,1.6,12.22,12.22,0,0,1-8.1-2.4c.4-.9.8-1.8,1.2-2.8a10.8,10.8,0,0,0,8.3,1.9,4,4,0,0,0,1.5-.6,1.85,1.85,0,0,0-.1-3.3,24.3,24.3,0,0,0-3.8-1.3c-1.2-.4-2.5-.7-3.6-1.1a4.54,4.54,0,0,1-3.2-4.5,5.11,5.11,0,0,1,3-5C578.5,118.1,582.3,118.6,586.2,120.5Z"/><path d="M450.5,135.6h10.2v3.1H446.9V119.2h3.6Z"/><path d="M266.6,138.7H263V119.2h3.6Z"/></g></g></svg>